<svg xmlns="http://www.w3.org/2000/svg" viewBox="0 0 600 400">
  <defs>
    <linearGradient id="mousemat-body" x1="0%" y1="0%" x2="100%" y2="100%">
      <stop offset="0%" style="stop-color:#1a1a1a"/>
      <stop offset="50%" style="stop-color:#252525"/>
      <stop offset="100%" style="stop-color:#1a1a1a"/>
    </linearGradient>
  </defs>
  
  <rect x="20" y="20" width="560" height="360" rx="12" fill="url(#mousemat-body)" stroke="#333" stroke-width="2"/>
  
  <rect x="40" y="40" width="520" height="320" rx="8" fill="#111" stroke="#222" stroke-width="1"/>
  
  <rect x="60" y="60" width="200" height="280" rx="4" fill="#0d0d0d" stroke="#333" stroke-width="0.5"/>
  
  <line x1="60" y1="100" x2="260" y2="100" stroke="#00ff41" stroke-width="1" opacity="0.3"/>
  <line x1="60" y1="140" x2="260" y2="140" stroke="#00ff41" stroke-width="1" opacity="0.3"/>
  <line x1="60" y1="180" x2="260" y2="180" stroke="#00ff41" stroke-width="1" opacity="0.3"/>
  <line x1="60" y1="220" x2="260" y2="220" stroke="#00ff41" stroke-width="1" opacity="0.3"/>
  <line x1="60" y1="260" x2="260" y2="260" stroke="#00ff41" stroke-width="1" opacity="0.3"/>
  <line x1="60" y1="300" x2="260" y2="300" stroke="#00ff41" stroke-width="1" opacity="0.3"/>
  
  <line x1="100" y1="60" x2="100" y2="340" stroke="#00ff41" stroke-width="1" opacity="0.3"/>
  <line x1="140" y1="60" x2="140" y2="340" stroke="#00ff41" stroke-width="1" opacity="0.3"/>
  <line x1="180" y1="60" x2="180" y2="340" stroke="#00ff41" stroke-width="1" opacity="0.3"/>
  <line x1="220" y1="60" x2="220" y2="340" stroke="#00ff41" stroke-width="1" opacity="0.3"/>
  
  <circle cx="300" cy="200" r="40" fill="#0d0d0d" stroke="#00ff41" stroke-width="1" opacity="0.3"/>
  
  <text x="300" y="380" text-anchor="middle" font-family="Arial" font-size="14" fill="#00ff41" font-weight="bold">MOUSEMAT</text>
</svg>