<svg xmlns="http://www.w3.org/2000/svg" viewBox="0 0 300 420">
  <defs>
    <linearGradient id="orbweaver-body" x1="0%" y1="0%" x2="0%" y2="100%">
      <stop offset="0%" style="stop-color:#1a1a1a"/>
      <stop offset="100%" style="stop-color:#0d0d0d"/>
    </linearGradient>
    <linearGradient id="key-cap" x1="0%" y1="0%" x2="0%" y2="100%">
      <stop offset="0%" style="stop-color:#333"/>
      <stop offset="100%" style="stop-color:#1a1a1a"/>
    </linearGradient>
  </defs>
  
  <path d="M 40 40 L 260 40 L 280 180 L 260 360 L 60 360 L 40 320 Z" fill="url(#orbweaver-body)" stroke="#333" stroke-width="2"/>
  
  <path d="M 50 50 L 250 50 L 265 175 L 250 340 L 70 340 L 55 290 Z" fill="#111" stroke="#222" stroke-width="1"/>
  
  <g fill="url(#key-cap)" stroke="#222" stroke-width="0.5">
    <rect x="65" y="60" width="40" height="28" rx="3"/>
    <rect x="115" y="60" width="40" height="28" rx="3"/>
    <rect x="165" y="60" width="40" height="28" rx="3"/>
    <rect x="215" y="60" width="40" height="28" rx="3"/>
    
    <rect x="65" y="98" width="40" height="28" rx="3"/>
    <rect x="115" y="98" width="40" height="28" rx="3"/>
    <rect x="165" y="98" width="40" height="28" rx="3"/>
    <rect x="215" y="98" width="40" height="28" rx="3"/>
    
    <rect x="65" y="136" width="40" height="28" rx="3"/>
    <rect x="115" y="136" width="40" height="28" rx="3"/>
    <rect x="165" y="136" width="40" height="28" rx="3"/>
    <rect x="215" y="136" width="40" height="28" rx="3"/>
    
    <rect x="65" y="174" width="40" height="28" rx="3"/>
    <rect x="115" y="174" width="40" height="28" rx="3"/>
    <rect x="165" y="174" width="40" height="28" rx="3"/>
    <rect x="215" y="174" width="40" height="28" rx="3"/>
    
    <rect x="65" y="212" width="40" height="28" rx="3"/>
    <rect x="115" y="212" width="40" height="28" rx="3"/>
    <rect x="165" y="212" width="40" height="28" rx="3"/>
    <rect x="215" y="212" width="40" height="28" rx="3"/>
    
    <rect x="65" y="250" width="40" height="28" rx="3"/>
    <rect x="115" y="250" width="40" height="28" rx="3"/>
    <rect x="165" y="250" width="40" height="28" rx="3"/>
    <rect x="215" y="250" width="40" height="28" rx="3"/>
  </g>
  
  <rect x="65" y="295" width="190" height="25" rx="4" fill="#222" stroke="#333" stroke-width="0.5"/>
  
  <circle cx="85" cy="308" r="6" fill="#00ff41" opacity="0.6"/>
  <circle cx="115" cy="308" r="6" fill="#00ff41" opacity="0.6"/>
  <circle cx="145" cy="308" r="6" fill="#00ff41" opacity="0.6"/>
  
  <text x="150" y="400" text-anchor="middle" font-family="Arial" font-size="12" fill="#666">Orbweaver</text>
</svg>