<svg viewBox="0 0 700 500" xmlns="http://www.w3.org/2000/svg" preserveAspectRatio="xMidYMid meet" role="img" aria-label="Orbweaver"><style>
.outline{stroke:#00FF41;stroke-opacity:.22;stroke-width:1.5;fill:none}
.detail{stroke:#00FF41;stroke-opacity:.18;stroke-width:.75;fill:none}
.button{stroke:#00FF41;stroke-opacity:.28;stroke-width:2;fill:none}
.hotspot{stroke:#00FF41;stroke-width:1.2;fill:none;pointer-events:all}
</style>
<rect x="90" y="70" width="520" height="360" rx="26" class="outline"/><rect x="160" y="120" width="70" height="46" rx="6" class="detail"/><rect x="245" y="120" width="70" height="46" rx="6" class="detail"/><rect x="330" y="120" width="70" height="46" rx="6" class="detail"/><rect x="415" y="120" width="70" height="46" rx="6" class="detail"/><rect x="500" y="120" width="70" height="46" rx="6" class="detail"/><rect x="160" y="180" width="70" height="46" rx="6" class="detail"/><rect x="245" y="180" width="70" height="46" rx="6" class="detail"/><rect x="330" y="180" width="70" height="46" rx="6" class="detail"/><rect x="415" y="180" width="70" height="46" rx="6" class="detail"/><rect x="500" y="180" width="70" height="46" rx="6" class="detail"/><rect x="160" y="240" width="70" height="46" rx="6" class="detail"/><rect x="245" y="240" width="70" height="46" rx="6" class="detail"/><rect x="330" y="240" width="70" height="46" rx="6" class="detail"/><rect x="415" y="240" width="70" height="46" rx="6" class="detail"/><rect x="500" y="240" width="70" height="46" rx="6" class="detail"/><rect x="160" y="300" width="70" height="46" rx="6" class="detail"/><rect x="245" y="300" width="70" height="46" rx="6" class="detail"/><rect x="330" y="300" width="70" height="46" rx="6" class="detail"/><rect x="415" y="300" width="70" height="46" rx="6" class="detail"/><rect x="500" y="300" width="70" height="46" rx="6" class="detail"/>
<circle cx="560" cy="250" r="36" class="button"/><circle cx="560" cy="250" r="8" class="hotspot" data-button="scroll-click"/></svg>