<svg width="200" height="200" viewBox="0 0 200 200" xmlns="http://www.w3.org/2000/svg">
  <path d="M60 50C40 50 20 70 20 110C20 150 40 170 80 170C90 170 100 160 100 160C100 160 110 170 120 170C160 170 180 150 180 110C180 70 160 50 140 50H60Z" fill="black"/>
  <circle cx="60" cy="110" r="15" fill="#333"/>
  <circle cx="140" cy="110" r="15" fill="#333"/>
  <rect x="55" y="80" width="10" height="20" fill="#333"/>
  <rect x="50" y="85" width="20" height="10" fill="#333"/>
  <g transform="translate(130, 80)">
    <circle cx="5" cy="5" r="4" fill="#333"/>
    <circle cx="15" cy="5" r="4" fill="#333"/>
    <circle cx="5" cy="15" r="4" fill="#333"/>
    <circle cx="15" cy="15" r="4" fill="#333"/>
  </g>
</svg>
