<svg xmlns="http://www.w3.org/2000/svg" viewBox="0 0 220 320">
  <defs>
    <linearGradient id="basilisk-body" x1="0%" y1="0%" x2="0%" y2="100%">
      <stop offset="0%" style="stop-color:#1a1a1a"/>
      <stop offset="50%" style="stop-color:#2a2a2a"/>
      <stop offset="100%" style="stop-color:#1a1a1a"/>
    </linearGradient>
  </defs>
  
  <ellipse cx="110" cy="160" rx="80" ry="135" fill="url(#basilisk-body)" stroke="#444" stroke-width="1"/>
  
  <path d="M 50 75 Q 75 35 110 35 Q 145 35 170 75 L 170 245 Q 170 280 110 280 Q 50 280 50 245 Z" fill="#1f1f1f" stroke="#333" stroke-width="1"/>
  
  <path d="M 55 65 Q 80 45 110 45 Q 140 45 165 65" fill="#111" stroke="#00ff41" stroke-width="0.5" opacity="0.3"/>
  
  <rect x="102" y="40" width="16" height="35" rx="8" fill="#0a0a0a" stroke="#333" stroke-width="1"/>
  <rect x="104" y="45" width="12" height="10" rx="2" fill="#111"/>
  <ellipse cx="110" cy="60" rx="6" ry="8" fill="#222" stroke="#00ff41" stroke-width="0.5"/>
  
  <rect x="68" y="90" width="84" height="7" rx="3.5" fill="#0d0d0d" stroke="#222" stroke-width="0.5"/>
  <rect x="68" y="105" width="84" height="7" rx="3.5" fill="#0d0d0d" stroke="#222" stroke-width="0.5"/>
  
  <ellipse cx="110" cy="240" rx="22" ry="7" fill="#111" stroke="#222" stroke-width="1"/>
  
  <rect x="40" y="135" width="15" height="20" rx="3" fill="#1a1a1a" stroke="#333" stroke-width="0.5"/>
  <rect x="40" y="165" width="15" height="20" rx="3" fill="#1a1a1a" stroke="#333" stroke-width="0.5"/>
  <rect x="40" y="195" width="15" height="20" rx="3" fill="#1a1a1a" stroke="#333" stroke-width="0.5"/>
  
  <circle cx="180" cy="180" r="8" fill="#1a1a1a" stroke="#333" stroke-width="1"/>
  <circle cx="180" cy="200" r="8" fill="#1a1a1a" stroke="#333" stroke-width="1"/>
  <circle cx="180" cy="220" r="8" fill="#1a1a1a" stroke="#333" stroke-width="1"/>
  
  <text x="110" y="310" text-anchor="middle" font-family="Arial" font-size="10" fill="#666">Basilisk V3 Pro</text>
</svg>