<svg xmlns="http://www.w3.org/2000/svg" viewBox="0 0 200 320">
  <defs>
    <linearGradient id="cobra-body" x1="0%" y1="0%" x2="100%" y2="0%">
      <stop offset="0%" style="stop-color:#1a1a1a"/>
      <stop offset="50%" style="stop-color:#252525"/>
      <stop offset="100%" style="stop-color:#1a1a1a"/>
    </linearGradient>
  </defs>
  
  <ellipse cx="100" cy="160" rx="60" ry="145" fill="url(#cobra-body)" stroke="#333" stroke-width="1"/>
  
  <path d="M 50 50 Q 75 25 100 25 Q 125 25 150 50 L 150 265 Q 150 295 100 295 Q 50 295 50 265 Z" fill="#1f1f1f" stroke="#333" stroke-width="1"/>
  
  <path d="M 55 45 Q 80 30 100 30 Q 120 30 145 45" fill="#111" stroke="#00ff41" stroke-width="0.5" opacity="0.3"/>
  
  <rect x="91" y="35" width="18" height="32" rx="9" fill="#0a0a0a" stroke="#333" stroke-width="1"/>
  <rect x="93" y="40" width="14" height="10" rx="2" fill="#111"/>
  <rect x="93" y="52" width="14" height="8" rx="2" fill="#1a1a1a" stroke="#00ff41" stroke-width="0.5"/>
  
  <rect x="65" y="78" width="70" height="6" rx="3" fill="#0d0d0d" stroke="#222" stroke-width="0.5"/>
  <rect x="65" y="90" width="70" height="6" rx="3" fill="#0d0d0d" stroke="#222" stroke-width="0.5"/>
  <rect x="65" y="102" width="70" height="6" rx="3" fill="#0d0d0d" stroke="#222" stroke-width="0.5"/>
  
  <ellipse cx="100" cy="255" rx="18" ry="6" fill="#111" stroke="#222" stroke-width="1"/>
  
  <path d="M 40 140 Q 30 150 40 160 Q 50 150 40 140" fill="#1a1a1a" stroke="#333" stroke-width="0.5"/>
  <path d="M 160 140 Q 170 150 160 160 Q 150 150 160 140" fill="#1a1a1a" stroke="#333" stroke-width="0.5"/>
  
  <circle cx="100" cy="120" r="3" fill="#00ff41" opacity="0.6"/>
  
  <text x="100" y="310" text-anchor="middle" font-family="Arial" font-size="10" fill="#666">Cobra Pro</text>
</svg>