<svg xmlns="http://www.w3.org/2000/svg" viewBox="0 0 200 300" fill="none" stroke="currentColor">
  <path d="M 60 280 C 30 280 30 230 30 180 C 30 120 40 60 50 30 C 60 15 80 10 100 10 C 120 10 140 15 150 30 C 160 60 170 120 170 180 C 170 230 170 280 140 280 C 120 280 80 280 60 280 Z" stroke-width="1.5"/>
  <path d="M 100 10 C 80 10 60 15 50 30 C 40 45 35 70 35 100 L 95 110 Z" stroke-width="2"/>
  <path d="M 100 10 C 120 10 140 15 150 30 C 160 45 165 70 165 100 L 105 110 Z" stroke-width="2"/>
  <rect x="92" y="30" width="16" height="40" rx="8" stroke-width="2"/>
  <path d="M 35 100 C 50 140 150 140 165 100" stroke-width="0.75"/>
  <circle cx="100" cy="220" r="15" stroke-width="0.75"/>
</svg>