<svg xmlns="http://www.w3.org/2000/svg" viewBox="0 0 200 300" fill="none" stroke="currentColor">
  <!-- Main Body Outline -->
  <path d="M 60 280 C 30 280 20 230 20 180 C 20 120 30 60 50 30 C 60 15 80 10 100 10 C 120 10 140 15 150 30 C 170 60 180 120 180 180 C 180 230 170 280 140 280 C 120 280 80 280 60 280 Z" stroke-width="1.5"/>
  <!-- Left Button -->
  <path d="M 100 10 C 80 10 60 15 50 30 C 40 45 35 70 32 100 L 95 110 Z" stroke-width="2"/>
  <!-- Right Button -->
  <path d="M 100 10 C 120 10 140 15 150 30 C 160 45 165 70 168 100 L 105 110 Z" stroke-width="2"/>
  <!-- Scroll Wheel -->
  <rect x="92" y="30" width="16" height="40" rx="8" stroke-width="2"/>
  <!-- DPI Buttons -->
  <rect x="94" y="80" width="12" height="10" rx="2" stroke-width="2"/>
  <rect x="94" y="95" width="12" height="10" rx="2" stroke-width="2"/>
  <!-- Side Buttons (visible on left edge) -->
  <path d="M 25 120 L 20 120 L 20 150 L 26 145 Z" stroke-width="2"/>
  <path d="M 26 155 L 20 160 L 20 190 L 25 190 Z" stroke-width="2"/>
  <!-- Separation lines -->
  <path d="M 32 100 C 50 140 150 140 168 100" stroke-width="0.75"/>
  <path d="M 100 110 L 100 140" stroke-width="0.75"/>
  <!-- Logo -->
  <circle cx="100" cy="220" r="15" stroke-width="0.75"/>
</svg>
