<svg xmlns="http://www.w3.org/2000/svg" viewBox="0 0 220 300" fill="none" stroke="currentColor">
  <path d="M 60 280 C 30 280 10 230 10 180 C 10 120 30 60 50 30 C 60 15 80 10 100 10 C 120 10 140 15 150 30 C 170 60 180 120 180 180 C 180 230 170 280 140 280 C 120 280 80 280 60 280 Z" stroke-width="1.5"/>
  <path d="M 10 180 C 0 180 0 150 10 140 C 20 130 30 130 30 140" stroke-width="1.5"/>
  <path d="M 100 10 C 80 10 60 15 50 30 C 40 45 35 70 32 100 L 95 110 Z" stroke-width="2"/>
  <path d="M 100 10 C 120 10 140 15 150 30 C 160 45 165 70 168 100 L 105 110 Z" stroke-width="2"/>
  <rect x="92" y="30" width="16" height="40" rx="8" stroke-width="2"/>
  <circle cx="100" cy="220" r="15" stroke-width="0.75"/>
</svg>