<svg xmlns="http://www.w3.org/2000/svg" viewBox="0 0 220 320">
  <defs>
    <linearGradient id="mamba-body" x1="0%" y1="0%" x2="0%" y2="100%">
      <stop offset="0%" style="stop-color:#1a1a1a"/>
      <stop offset="50%" style="stop-color:#2d2d2d"/>
      <stop offset="100%" style="stop-color:#1a1a1a"/>
    </linearGradient>
  </defs>
  
  <ellipse cx="110" cy="160" rx="80" ry="140" fill="url(#mamba-body)" stroke="#444" stroke-width="1"/>
  
  <path d="M 48 75 Q 75 35 110 35 Q 145 35 172 75 L 172 245 Q 172 280 110 280 Q 48 280 48 245 Z" fill="#1f1f1f" stroke="#333" stroke-width="1"/>
  
  <path d="M 55 65 Q 80 45 110 45 Q 140 45 165 65" fill="#111" stroke="#00ff41" stroke-width="0.5" opacity="0.3"/>
  
  <rect x="102" y="40" width="16" height="35" rx="8" fill="#0a0a0a" stroke="#333" stroke-width="1"/>
  <rect x="104" y="45" width="12" height="10" rx="2" fill="#111"/>
  <rect x="104" y="57" width="12" height="10" rx="2" fill="#1a1a1a" stroke="#00ff41" stroke-width="0.5"/>
  
  <rect x="65" y="85" width="90" height="6" rx="3" fill="#0d0d0d" stroke="#222" stroke-width="0.5"/>
  <rect x="65" y="98" width="90" height="6" rx="3" fill="#0d0d0d" stroke="#222" stroke-width="0.5"/>
  <rect x="65" y="111" width="90" height="6" rx="3" fill="#0d0d0d" stroke="#222" stroke-width="0.5"/>
  
  <ellipse cx="110" cy="245" rx="25" ry="8" fill="#111" stroke="#333" stroke-width="1"/>
  
  <rect x="38" y="130" width="12" height="22" rx="2" fill="#1a1a1a" stroke="#333" stroke-width="0.5"/>
  <rect x="38" y="160" width="12" height="22" rx="2" fill="#1a1a1a" stroke="#333" stroke-width="0.5"/>
  
  <rect x="170" y="130" width="12" height="22" rx="2" fill="#1a1a1a" stroke="#333" stroke-width="0.5"/>
  <rect x="170" y="160" width="12" height="22" rx="2" fill="#1a1a1a" stroke="#333" stroke-width="0.5"/>
  
  <text x="110" y="310" text-anchor="middle" font-family="Arial" font-size="10" fill="#666">Mamba Elite</text>
</svg>