<svg xmlns="http://www.w3.org/2000/svg" viewBox="0 0 240 320">
  <defs>
    <linearGradient id="naga-body" x1="0%" y1="0%" x2="0%" y2="100%">
      <stop offset="0%" style="stop-color:#1a1a1a"/>
      <stop offset="50%" style="stop-color:#252525"/>
      <stop offset="100%" style="stop-color:#1a1a1a"/>
    </linearGradient>
  </defs>
  
  <ellipse cx="120" cy="160" rx="75" ry="145" fill="url(#naga-body)" stroke="#333" stroke-width="1"/>
  
  <path d="M 60 70 Q 90 35 120 35 Q 150 35 180 70 L 180 255 Q 180 290 120 290 Q 60 290 60 255 Z" fill="#1f1f1f" stroke="#333" stroke-width="1"/>
  
  <rect x="108" y="40" width="24" height="40" rx="12" fill="#0a0a0a" stroke="#333" stroke-width="1"/>
  <rect x="110" y="45" width="20" height="12" rx="3" fill="#111"/>
  <rect x="110" y="60" width="20" height="12" rx="2" fill="#1a1a1a" stroke="#00ff41" stroke-width="0.5"/>
  
  <rect x="70" y="90" width="100" height="6" rx="3" fill="#0d0d0d" stroke="#222" stroke-width="0.5"/>
  <rect x="70" y="105" width="100" height="6" rx="3" fill="#0d0d0d" stroke="#222" stroke-width="0.5"/>
  
  <ellipse cx="120" cy="250" rx="22" ry="7" fill="#111" stroke="#222" stroke-width="1"/>
  
  <rect x="15" y="125" width="35" height="18" rx="2" fill="#1a1a1a" stroke="#333" stroke-width="0.5"/>
  <rect x="15" y="148" width="35" height="18" rx="2" fill="#1a1a1a" stroke="#333" stroke-width="0.5"/>
  <rect x="15" y="171" width="35" height="18" rx="2" fill="#1a1a1a" stroke="#333" stroke-width="0.5"/>
  <rect x="15" y="194" width="35" height="18" rx="2" fill="#1a1a1a" stroke="#333" stroke-width="0.5"/>
  <rect x="15" y="217" width="35" height="18" rx="2" fill="#1a1a1a" stroke="#333" stroke-width="0.5"/>
  <rect x="15" y="240" width="35" height="18" rx="2" fill="#1a1a1a" stroke="#333" stroke-width="0.5"/>
  
  <rect x="175" y="125" width="35" height="18" rx="2" fill="#1a1a1a" stroke="#333" stroke-width="0.5"/>
  <rect x="175" y="148" width="35" height="18" rx="2" fill="#1a1a1a" stroke="#333" stroke-width="0.5"/>
  <rect x="175" y="171" width="35" height="18" rx="2" fill="#1a1a1a" stroke="#333" stroke-width="0.5"/>
  <rect x="175" y="194" width="35" height="18" rx="2" fill="#1a1a1a" stroke="#333" stroke-width="0.5"/>
  <rect x="175" y="217" width="35" height="18" rx="2" fill="#1a1a1a" stroke="#333" stroke-width="0.5"/>
  <rect x="175" y="240" width="35" height="18" rx="2" fill="#1a1a1a" stroke="#333" stroke-width="0.5"/>
  
  <text x="120" y="310" text-anchor="middle" font-family="Arial" font-size="10" fill="#666">Naga V2 Pro</text>
</svg>