<svg xmlns="http://www.w3.org/2000/svg" viewBox="0 0 200 320">
  <defs>
    <linearGradient id="viper-body" x1="0%" y1="0%" x2="100%" y2="0%">
      <stop offset="0%" style="stop-color:#1a1a1a"/>
      <stop offset="50%" style="stop-color:#252525"/>
      <stop offset="100%" style="stop-color:#1a1a1a"/>
    </linearGradient>
  </defs>
  
  <ellipse cx="100" cy="160" rx="65" ry="145" fill="url(#viper-body)" stroke="#333" stroke-width="1"/>
  
  <path d="M 55 50 Q 80 25 100 25 Q 120 25 145 50 L 145 260 Q 145 290 100 290 Q 55 290 55 260 Z" fill="#1f1f1f" stroke="#333" stroke-width="1"/>
  
  <path d="M 60 45 Q 85 30 100 30 Q 115 30 140 45" fill="#111" stroke="#00ff41" stroke-width="0.5" opacity="0.3"/>
  
  <rect x="92" y="35" width="16" height="30" rx="8" fill="#0a0a0a" stroke="#333" stroke-width="1"/>
  <rect x="94" y="40" width="12" height="8" rx="2" fill="#111"/>
  <rect x="94" y="50" width="12" height="8" rx="2" fill="#1a1a1a" stroke="#00ff41" stroke-width="0.5"/>
  
  <rect x="70" y="80" width="60" height="6" rx="3" fill="#0d0d0d" stroke="#222" stroke-width="0.5"/>
  <rect x="70" y="95" width="60" height="6" rx="3" fill="#0d0d0d" stroke="#222" stroke-width="0.5"/>
  
  <ellipse cx="100" cy="250" rx="20" ry="6" fill="#111" stroke="#222" stroke-width="1"/>
  
  <rect x="45" y="140" width="8" height="25" rx="2" fill="#1a1a1a" stroke="#333" stroke-width="0.5"/>
  <rect x="45" y="175" width="8" height="25" rx="2" fill="#1a1a1a" stroke="#333" stroke-width="0.5"/>
  
  <circle cx="100" cy="115" r="3" fill="#00ff41" opacity="0.6"/>
  
  <text x="100" y="310" text-anchor="middle" font-family="Arial" font-size="10" fill="#666">Viper V3 Pro</text>
</svg>