<svg viewBox="0 0 1000 420" xmlns="http://www.w3.org/2000/svg" preserveAspectRatio="xMidYMid meet" role="img" aria-label="Blackwidow V4 75"><style>
.outline{stroke:#00FF41;stroke-opacity:.22;stroke-width:1.5;fill:none}
.detail{stroke:#00FF41;stroke-opacity:.18;stroke-width:.75;fill:none}
.button{stroke:#00FF41;stroke-opacity:.28;stroke-width:2;fill:none}
.hotspot{stroke:#00FF41;stroke-width:1.2;fill:none;pointer-events:all}
</style>
<rect x="70" y="90" width="860" height="250" rx="16" class="outline"/><rect x="120" y="150" width="42" height="36" rx="4" class="detail"/><rect x="168" y="150" width="42" height="36" rx="4" class="detail"/><rect x="216" y="150" width="42" height="36" rx="4" class="detail"/><rect x="264" y="150" width="42" height="36" rx="4" class="detail"/><rect x="312" y="150" width="42" height="36" rx="4" class="detail"/><rect x="360" y="150" width="42" height="36" rx="4" class="detail"/><rect x="408" y="150" width="42" height="36" rx="4" class="detail"/><rect x="456" y="150" width="42" height="36" rx="4" class="detail"/><rect x="504" y="150" width="42" height="36" rx="4" class="detail"/><rect x="552" y="150" width="42" height="36" rx="4" class="detail"/><rect x="600" y="150" width="42" height="36" rx="4" class="detail"/><rect x="648" y="150" width="42" height="36" rx="4" class="detail"/><rect x="696" y="150" width="42" height="36" rx="4" class="detail"/><rect x="744" y="150" width="42" height="36" rx="4" class="detail"/><rect x="792" y="150" width="42" height="36" rx="4" class="detail"/><rect x="120" y="198" width="42" height="36" rx="4" class="detail"/><rect x="168" y="198" width="42" height="36" rx="4" class="detail"/><rect x="216" y="198" width="42" height="36" rx="4" class="detail"/><rect x="264" y="198" width="42" height="36" rx="4" class="detail"/><rect x="312" y="198" width="42" height="36" rx="4" class="detail"/><rect x="360" y="198" width="42" height="36" rx="4" class="detail"/><rect x="408" y="198" width="42" height="36" rx="4" class="detail"/><rect x="456" y="198" width="42" height="36" rx="4" class="detail"/><rect x="504" y="198" width="42" height="36" rx="4" class="detail"/><rect x="552" y="198" width="42" height="36" rx="4" class="detail"/><rect x="600" y="198" width="42" height="36" rx="4" class="detail"/><rect x="648" y="198" width="42" height="36" rx="4" class="detail"/><rect x="696" y="198" width="42" height="36" rx="4" class="detail"/><rect x="744" y="198" width="42" height="36" rx="4" class="detail"/><rect x="792" y="198" width="42" height="36" rx="4" class="detail"/><rect x="120" y="246" width="42" height="36" rx="4" class="detail"/><rect x="168" y="246" width="42" height="36" rx="4" class="detail"/><rect x="216" y="246" width="42" height="36" rx="4" class="detail"/><rect x="264" y="246" width="42" height="36" rx="4" class="detail"/><rect x="312" y="246" width="42" height="36" rx="4" class="detail"/><rect x="360" y="246" width="42" height="36" rx="4" class="detail"/><rect x="408" y="246" width="42" height="36" rx="4" class="detail"/><rect x="456" y="246" width="42" height="36" rx="4" class="detail"/><rect x="504" y="246" width="42" height="36" rx="4" class="detail"/><rect x="552" y="246" width="42" height="36" rx="4" class="detail"/><rect x="600" y="246" width="42" height="36" rx="4" class="detail"/><rect x="648" y="246" width="42" height="36" rx="4" class="detail"/><rect x="696" y="246" width="42" height="36" rx="4" class="detail"/><rect x="744" y="246" width="42" height="36" rx="4" class="detail"/><rect x="792" y="246" width="42" height="36" rx="4" class="detail"/><rect x="120" y="294" width="42" height="36" rx="4" class="detail"/><rect x="168" y="294" width="42" height="36" rx="4" class="detail"/><rect x="216" y="294" width="42" height="36" rx="4" class="detail"/><rect x="264" y="294" width="42" height="36" rx="4" class="detail"/><rect x="312" y="294" width="42" height="36" rx="4" class="detail"/><rect x="360" y="294" width="42" height="36" rx="4" class="detail"/><rect x="408" y="294" width="42" height="36" rx="4" class="detail"/><rect x="456" y="294" width="42" height="36" rx="4" class="detail"/><rect x="504" y="294" width="42" height="36" rx="4" class="detail"/><rect x="552" y="294" width="42" height="36" rx="4" class="detail"/><rect x="600" y="294" width="42" height="36" rx="4" class="detail"/><rect x="648" y="294" width="42" height="36" rx="4" class="detail"/><rect x="696" y="294" width="42" height="36" rx="4" class="detail"/><rect x="744" y="294" width="42" height="36" rx="4" class="detail"/><rect x="792" y="294" width="42" height="36" rx="4" class="detail"/><rect x="120" y="342" width="42" height="36" rx="4" class="detail"/><rect x="168" y="342" width="42" height="36" rx="4" class="detail"/><rect x="216" y="342" width="42" height="36" rx="4" class="detail"/><rect x="264" y="342" width="42" height="36" rx="4" class="detail"/><rect x="312" y="342" width="42" height="36" rx="4" class="detail"/><rect x="360" y="342" width="42" height="36" rx="4" class="detail"/><rect x="408" y="342" width="42" height="36" rx="4" class="detail"/><rect x="456" y="342" width="42" height="36" rx="4" class="detail"/><rect x="504" y="342" width="42" height="36" rx="4" class="detail"/><rect x="552" y="342" width="42" height="36" rx="4" class="detail"/><rect x="600" y="342" width="42" height="36" rx="4" class="detail"/><rect x="648" y="342" width="42" height="36" rx="4" class="detail"/><rect x="696" y="342" width="42" height="36" rx="4" class="detail"/><rect x="744" y="342" width="42" height="36" rx="4" class="detail"/><rect x="792" y="342" width="42" height="36" rx="4" class="detail"/>
<rect x="360" y="292" width="280" height="36" rx="6" class="button"/>
<circle cx="145" cy="170" r="8" class="hotspot" data-button="esc"/><circle cx="552" cy="312" r="8" class="hotspot" data-button="space"/></svg>