<svg xmlns="http://www.w3.org/2000/svg" viewBox="0 0 650 340">
  <defs>
    <linearGradient id="bw75-body" x1="0%" y1="0%" x2="0%" y2="100%">
      <stop offset="0%" style="stop-color:#1a1a1a"/>
      <stop offset="100%" style="stop-color:#0d0d0d"/>
    </linearGradient>
    <linearGradient id="key-cap" x1="0%" y1="0%" x2="0%" y2="100%">
      <stop offset="0%" style="stop-color:#333"/>
      <stop offset="100%" style="stop-color:#1a1a1a"/>
    </linearGradient>
  </defs>
  
  <rect x="10" y="10" width="630" height="320" rx="12" fill="url(#bw75-body)" stroke="#333" stroke-width="1"/>
  
  <rect x="25" y="25" width="440" height="270" rx="8" fill="#111" stroke="#222" stroke-width="1"/>
  
  <g fill="url(#key-cap)" stroke="#222" stroke-width="0.5">
    <rect x="35" y="35" width="35" height="30" rx="3"/>
    <rect x="80" y="35" width="35" height="30" rx="3"/>
    <rect x="125" y="35" width="35" height="30" rx="3"/>
    <rect x="170" y="35" width="35" height="30" rx="3"/>
    <rect x="215" y="35" width="35" height="30" rx="3"/>
    <rect x="260" y="35" width="35" height="30" rx="3"/>
    <rect x="305" y="35" width="35" height="30" rx="3"/>
    <rect x="350" y="35" width="35" height="30" rx="3"/>
    <rect x="395" y="35" width="55" height="30" rx="3"/>
    
    <rect x="35" y="75" width="45" height="30" rx="3"/>
    <rect x="90" y="75" width="35" height="30" rx="3"/>
    <rect x="135" y="75" width="35" height="30" rx="3"/>
    <rect x="180" y="75" width="35" height="30" rx="3"/>
    <rect x="225" y="75" width="35" height="30" rx="3"/>
    <rect x="270" y="75" width="35" height="30" rx="3"/>
    <rect x="315" y="75" width="35" height="30" rx="3"/>
    <rect x="360" y="75" width="35" height="30" rx="3"/>
    <rect x="405" y="75" width="45" height="30" rx="3"/>
    
    <rect x="35" y="115" width="55" height="30" rx="3"/>
    <rect x="100" y="115" width="35" height="30" rx="3"/>
    <rect x="145" y="115" width="35" height="30" rx="3"/>
    <rect x="190" y="115" width="35" height="30" rx="3"/>
    <rect x="235" y="115" width="35" height="30" rx="3"/>
    <rect x="280" y="115" width="35" height="30" rx="3"/>
    <rect x="325" y="115" width="35" height="30" rx="3"/>
    <rect x="370" y="115" width="35" height="30" rx="3"/>
    <rect x="415" y="115" width="35" height="30" rx="3"/>
    
    <rect x="35" y="155" width="70" height="30" rx="3"/>
    <rect x="115" y="155" width="35" height="30" rx="3"/>
    <rect x="160" y="155" width="35" height="30" rx="3"/>
    <rect x="205" y="155" width="35" height="30" rx="3"/>
    <rect x="250" y="155" width="35" height="30" rx="3"/>
    <rect x="295" y="155" width="35" height="30" rx="3"/>
    <rect x="340" y="155" width="35" height="30" rx="3"/>
    <rect x="385" y="155" width="35" height="30" rx="3"/>
    <rect x="430" y="155" width="25" height="30" rx="3"/>
    
    <rect x="35" y="195" width="25" height="25" rx="3"/>
    <rect x="70" y="195" width="25" height="25" rx="3"/>
    <rect x="105" y="195" width="25" height="25" rx="3"/>
    <rect x="140" y="195" width="25" height="25" rx="3"/>
    <rect x="175" y="195" width="25" height="25" rx="3"/>
    <rect x="210" y="195" width="25" height="25" rx="3"/>
    <rect x="245" y="195" width="25" height="25" rx="3"/>
    <rect x="280" y="195" width="25" height="25" rx="3"/>
    <rect x="315" y="195" width="25" height="25" rx="3"/>
    <rect x="350" y="195" width="25" height="25" rx="3"/>
    <rect x="385" y="195" width="25" height="25" rx="3"/>
    <rect x="420" y="195" width="35" height="25" rx="3"/>
  </g>
  
  <rect x="475" y="25" width="150" height="270" rx="8" fill="#111" stroke="#222" stroke-width="1"/>
  
  <rect x="485" y="35" width="130" height="35" rx="4" fill="#222" stroke="#333" stroke-width="0.5"/>
  <rect x="485" y="80" width="130" height="35" rx="4" fill="#222" stroke="#333" stroke-width="0.5"/>
  <rect x="485" y="125" width="60" height="30" rx="4" fill="#222" stroke="#333" stroke-width="0.5"/>
  <rect x="555" y="125" width="60" height="30" rx="4" fill="#222" stroke="#333" stroke-width="0.5"/>
  <rect x="485" y="165" width="130" height="110" rx="4" fill="#222" stroke="#333" stroke-width="0.5"/>
  
  <circle cx="515" cy="50" r="8" fill="#1a1a1a" stroke="#333" stroke-width="1"/>
  <circle cx="545" cy="50" r="8" fill="#1a1a1a" stroke="#333" stroke-width="1"/>
  <circle cx="575" cy="50" r="8" fill="#1a1a1a" stroke="#333" stroke-width="1"/>
  
  <text x="325" y="325" text-anchor="middle" font-family="Arial" font-size="12" fill="#666">BlackWidow V4 75%</text>
</svg>