<svg xmlns="http://www.w3.org/2000/svg" viewBox="0 0 800 380">
  <defs>
    <linearGradient id="ornata-body" x1="0%" y1="0%" x2="0%" y2="100%">
      <stop offset="0%" style="stop-color:#1a1a1a"/>
      <stop offset="100%" style="stop-color:#0d0d0d"/>
    </linearGradient>
    <linearGradient id="key-cap" x1="0%" y1="0%" x2="0%" y2="100%">
      <stop offset="0%" style="stop-color:#333"/>
      <stop offset="100%" style="stop-color:#1a1a1a"/>
    </linearGradient>
  </defs>
  
  <rect x="10" y="10" width="780" height="320" rx="12" fill="url(#ornata-body)" stroke="#333" stroke-width="1"/>
  
  <rect x="30" y="30" width="540" height="260" rx="8" fill="#111" stroke="#222" stroke-width="1"/>
  
  <g fill="url(#key-cap)" stroke="#222" stroke-width="0.5">
    <rect x="40" y="40" width="40" height="35" rx="4"/>
    <rect x="90" y="40" width="40" height="35" rx="4"/>
    <rect x="140" y="40" width="40" height="35" rx="4"/>
    <rect x="190" y="40" width="40" height="35" rx="4"/>
    <rect x="240" y="40" width="40" height="35" rx="4"/>
    <rect x="290" y="40" width="40" height="35" rx="4"/>
    <rect x="340" y="40" width="40" height="35" rx="4"/>
    <rect x="390" y="40" width="40" height="35" rx="4"/>
    <rect x="440" y="40" width="40" height="35" rx="4"/>
    <rect x="490" y="40" width="70" height="35" rx="4"/>
    
    <rect x="40" y="85" width="55" height="35" rx="4"/>
    <rect x="105" y="85" width="40" height="35" rx="4"/>
    <rect x="155" y="85" width="40" height="35" rx="4"/>
    <rect x="205" y="85" width="40" height="35" rx="4"/>
    <rect x="255" y="85" width="40" height="35" rx="4"/>
    <rect x="305" y="85" width="40" height="35" rx="4"/>
    <rect x="355" y="85" width="40" height="35" rx="4"/>
    <rect x="405" y="85" width="40" height="35" rx="4"/>
    <rect x="455" y="85" width="40" height="35" rx="4"/>
    <rect x="505" y="85" width="55" height="35" rx="4"/>
    
    <rect x="40" y="130" width="70" height="35" rx="4"/>
    <rect x="120" y="130" width="40" height="35" rx="4"/>
    <rect x="170" y="130" width="40" height="35" rx="4"/>
    <rect x="220" y="130" width="40" height="35" rx="4"/>
    <rect x="270" y="130" width="40" height="35" rx="4"/>
    <rect x="320" y="130" width="40" height="35" rx="4"/>
    <rect x="370" y="130" width="40" height="35" rx="4"/>
    <rect x="420" y="130" width="40" height="35" rx="4"/>
    <rect x="470" y="130" width="40" height="35" rx="4"/>
    <rect x="520" y="130" width="40" height="35" rx="4"/>
    
    <rect x="40" y="175" width="90" height="35" rx="4"/>
    <rect x="140" y="175" width="40" height="35" rx="4"/>
    <rect x="190" y="175" width="40" height="35" rx="4"/>
    <rect x="240" y="175" width="40" height="35" rx="4"/>
    <rect x="290" y="175" width="40" height="35" rx="4"/>
    <rect x="340" y="175" width="40" height="35" rx="4"/>
    <rect x="390" y="175" width="40" height="35" rx="4"/>
    <rect x="440" y="175" width="40" height="35" rx="4"/>
    <rect x="490" y="175" width="65" height="35" rx="4"/>
    
    <rect x="40" y="220" width="30" height="30" rx="4"/>
    <rect x="80" y="220" width="30" height="30" rx="4"/>
    <rect x="120" y="220" width="30" height="30" rx="4"/>
    <rect x="160" y="220" width="30" height="30" rx="4"/>
    <rect x="200" y="220" width="30" height="30" rx="4"/>
    <rect x="240" y="220" width="30" height="30" rx="4"/>
    <rect x="280" y="220" width="30" height="30" rx="4"/>
    <rect x="320" y="220" width="30" height="30" rx="4"/>
    <rect x="360" y="220" width="30" height="30" rx="4"/>
    <rect x="400" y="220" width="30" height="30" rx="4"/>
    <rect x="440" y="220" width="30" height="30" rx="4"/>
    <rect x="480" y="220" width="40" height="30" rx="4"/>
  </g>
  
  <rect x="620" y="50" width="150" height="180" rx="8" fill="#111" stroke="#222" stroke-width="1"/>
  
  <rect x="630" y="60" width="130" height="35" rx="4" fill="#222" stroke="#333" stroke-width="0.5"/>
  <rect x="630" y="105" width="130" height="35" rx="4" fill="#222" stroke="#333" stroke-width="0.5"/>
  <rect x="630" y="150" width="130" height="60" rx="4" fill="#222" stroke="#333" stroke-width="0.5"/>
  
  <circle cx="660" cy="75" r="8" fill="#1a1a1a" stroke="#333" stroke-width="1"/>
  <circle cx="690" cy="75" r="8" fill="#1a1a1a" stroke="#333" stroke-width="1"/>
  <circle cx="720" cy="75" r="8" fill="#1a1a1a" stroke="#333" stroke-width="1"/>
  
  <rect x="20" y="50" width="25" height="25" rx="4" fill="#1a1a1a" stroke="#333" stroke-width="1"/>
  <rect x="20" y="85" width="25" height="25" rx="4" fill="#1a1a1a" stroke="#333" stroke-width="1"/>
  
  <rect x="10" y="295" width="780" height="25" rx="4" fill="#111" stroke="#222" stroke-width="1"/>
  
  <text x="400" y="365" text-anchor="middle" font-family="Arial" font-size="12" fill="#666">Ornata V3</text>
</svg>